# xmcd
#
# Track frame offsets:
# 183
# 14023
# 27568
# 40040
# 50965
# 66883
# 79570
# 93628
# 105705
# 116533
# 130065
# 142168
# 156225
# 167368
#
# Disc length: 2467 seconds
#
# Revision: 0
# Processed by: cddbd v1.4PL0 Copyright (c) Steve Scherf et al.
# Submitted via: Audion 3.0.2 (http://www.panic.com/audion/)
#
DISCID=c109a10e
DTITLE=Various Artist - Blues Legends
DYEAR=1900
DGENRE=
TTITLE0=Walkin' the blues
TTITLE1=One bourbon, one scotch, one beer
TTITLE2=I'm your hoochie coochie man
TTITLE3=Stormy monday
TTITLE4=Ain't nobody home
TTITLE5=Keep it to yourself
TTITLE6=Smokestack lightnin'
TTITLE7=Mother earth
TTITLE8=Madison blues
TTITLE9=At last
TTITLE10=Ain't nobody's business
TTITLE11=If walls could talk
TTITLE12=Snake drive
TTITLE13=Stick around
EXTD=
EXTT0=
EXTT1=
EXTT2=
EXTT3=
EXTT4=
EXTT5=
EXTT6=
EXTT7=
EXTT8=
EXTT9=
EXTT10=
EXTT11=
EXTT12=
EXTT13=
PLAYORDER=
